<mxfile host="app.diagrams.net" modified="2023-10-01T18:07:31.687Z" agent="Mozilla/5.0 (Windows NT 10.0; Win64; x64; rv:109.0) Gecko/20100101 Firefox/118.0" etag="Q87IouboNKlAgcEH19rW" version="22.0.0" type="device">
  <diagram id="C5RBs43oDa-KdzZeNtuy" name="Page-1">
    <mxGraphModel dx="1050" dy="539" grid="1" gridSize="10" guides="1" tooltips="1" connect="1" arrows="1" fold="1" page="1" pageScale="1" pageWidth="827" pageHeight="1169" math="0" shadow="0">
      <root>
        <mxCell id="WIyWlLk6GJQsqaUBKTNV-0" />
        <mxCell id="WIyWlLk6GJQsqaUBKTNV-1" parent="WIyWlLk6GJQsqaUBKTNV-0" />
        <mxCell id="BqVu11j0ND8JVcRdIvdi-0" value="Start" style="ellipse;whiteSpace=wrap;html=1;" vertex="1" parent="WIyWlLk6GJQsqaUBKTNV-1">
          <mxGeometry x="130" y="30" width="80" height="30" as="geometry" />
        </mxCell>
        <mxCell id="BqVu11j0ND8JVcRdIvdi-3" value="" style="endArrow=classic;html=1;rounded=0;" edge="1" parent="WIyWlLk6GJQsqaUBKTNV-1">
          <mxGeometry width="50" height="50" relative="1" as="geometry">
            <mxPoint x="170" y="60" as="sourcePoint" />
            <mxPoint x="170" y="100" as="targetPoint" />
          </mxGeometry>
        </mxCell>
        <mxCell id="BqVu11j0ND8JVcRdIvdi-5" value="&lt;div&gt;A = [list of N numbers]&lt;/div&gt;&lt;div&gt;N = len(A)&lt;/div&gt;&lt;div&gt;swapped = false&lt;/div&gt;&lt;div&gt;i = 0&lt;br&gt;&lt;/div&gt;" style="rounded=0;whiteSpace=wrap;html=1;" vertex="1" parent="WIyWlLk6GJQsqaUBKTNV-1">
          <mxGeometry x="110" y="100" width="120" height="60" as="geometry" />
        </mxCell>
        <mxCell id="BqVu11j0ND8JVcRdIvdi-6" value="i &amp;lt; N?" style="rhombus;whiteSpace=wrap;html=1;" vertex="1" parent="WIyWlLk6GJQsqaUBKTNV-1">
          <mxGeometry x="140" y="200" width="60" height="50" as="geometry" />
        </mxCell>
        <mxCell id="BqVu11j0ND8JVcRdIvdi-8" value="" style="endArrow=classic;html=1;rounded=0;" edge="1" parent="WIyWlLk6GJQsqaUBKTNV-1">
          <mxGeometry width="50" height="50" relative="1" as="geometry">
            <mxPoint x="169.5" y="160" as="sourcePoint" />
            <mxPoint x="169.5" y="200" as="targetPoint" />
          </mxGeometry>
        </mxCell>
        <mxCell id="BqVu11j0ND8JVcRdIvdi-9" value="A[i] &amp;gt; A[i+1]?" style="rhombus;whiteSpace=wrap;html=1;" vertex="1" parent="WIyWlLk6GJQsqaUBKTNV-1">
          <mxGeometry x="130" y="290" width="80" height="60" as="geometry" />
        </mxCell>
        <mxCell id="BqVu11j0ND8JVcRdIvdi-10" value="" style="endArrow=classic;html=1;rounded=0;" edge="1" parent="WIyWlLk6GJQsqaUBKTNV-1">
          <mxGeometry width="50" height="50" relative="1" as="geometry">
            <mxPoint x="169.5" y="250" as="sourcePoint" />
            <mxPoint x="169.5" y="290" as="targetPoint" />
          </mxGeometry>
        </mxCell>
        <mxCell id="BqVu11j0ND8JVcRdIvdi-11" value="&lt;div&gt;swap A[i] and A[j+1]&lt;/div&gt;&lt;div&gt;swapped = true&lt;br&gt;&lt;/div&gt;" style="rounded=0;whiteSpace=wrap;html=1;" vertex="1" parent="WIyWlLk6GJQsqaUBKTNV-1">
          <mxGeometry x="115" y="390" width="110" height="40" as="geometry" />
        </mxCell>
        <mxCell id="BqVu11j0ND8JVcRdIvdi-12" value="" style="endArrow=classic;html=1;rounded=0;" edge="1" parent="WIyWlLk6GJQsqaUBKTNV-1">
          <mxGeometry width="50" height="50" relative="1" as="geometry">
            <mxPoint x="169.5" y="350" as="sourcePoint" />
            <mxPoint x="169.5" y="390" as="targetPoint" />
          </mxGeometry>
        </mxCell>
        <mxCell id="BqVu11j0ND8JVcRdIvdi-13" value="i += 1" style="rounded=0;whiteSpace=wrap;html=1;" vertex="1" parent="WIyWlLk6GJQsqaUBKTNV-1">
          <mxGeometry x="60" y="215" width="40" height="20" as="geometry" />
        </mxCell>
        <mxCell id="BqVu11j0ND8JVcRdIvdi-14" value="" style="endArrow=classic;html=1;rounded=0;" edge="1" parent="WIyWlLk6GJQsqaUBKTNV-1">
          <mxGeometry width="50" height="50" relative="1" as="geometry">
            <mxPoint x="130" y="319.5" as="sourcePoint" />
            <mxPoint x="80" y="320" as="targetPoint" />
          </mxGeometry>
        </mxCell>
        <mxCell id="BqVu11j0ND8JVcRdIvdi-15" value="" style="endArrow=classic;html=1;rounded=0;" edge="1" parent="WIyWlLk6GJQsqaUBKTNV-1">
          <mxGeometry width="50" height="50" relative="1" as="geometry">
            <mxPoint x="80" y="410" as="sourcePoint" />
            <mxPoint x="80" y="235" as="targetPoint" />
          </mxGeometry>
        </mxCell>
        <mxCell id="BqVu11j0ND8JVcRdIvdi-16" value="" style="endArrow=classic;html=1;rounded=0;" edge="1" parent="WIyWlLk6GJQsqaUBKTNV-1">
          <mxGeometry width="50" height="50" relative="1" as="geometry">
            <mxPoint x="115" y="409.66" as="sourcePoint" />
            <mxPoint x="80" y="410.16" as="targetPoint" />
          </mxGeometry>
        </mxCell>
        <mxCell id="BqVu11j0ND8JVcRdIvdi-17" style="edgeStyle=orthogonalEdgeStyle;rounded=0;orthogonalLoop=1;jettySize=auto;html=1;exitX=0.5;exitY=1;exitDx=0;exitDy=0;" edge="1" parent="WIyWlLk6GJQsqaUBKTNV-1" source="BqVu11j0ND8JVcRdIvdi-11" target="BqVu11j0ND8JVcRdIvdi-11">
          <mxGeometry relative="1" as="geometry" />
        </mxCell>
        <mxCell id="BqVu11j0ND8JVcRdIvdi-18" value="" style="endArrow=classic;html=1;rounded=0;" edge="1" parent="WIyWlLk6GJQsqaUBKTNV-1">
          <mxGeometry width="50" height="50" relative="1" as="geometry">
            <mxPoint x="100" y="224.66" as="sourcePoint" />
            <mxPoint x="140" y="224.66" as="targetPoint" />
          </mxGeometry>
        </mxCell>
        <mxCell id="BqVu11j0ND8JVcRdIvdi-19" value="&lt;div&gt;swapped = false&lt;/div&gt;&lt;div&gt;i = len(A)&lt;br&gt;&lt;/div&gt;" style="rounded=0;whiteSpace=wrap;html=1;" vertex="1" parent="WIyWlLk6GJQsqaUBKTNV-1">
          <mxGeometry x="450" y="210" width="100" height="30" as="geometry" />
        </mxCell>
        <mxCell id="BqVu11j0ND8JVcRdIvdi-20" value="A[i] &amp;gt; A[i+1]?" style="rhombus;whiteSpace=wrap;html=1;" vertex="1" parent="WIyWlLk6GJQsqaUBKTNV-1">
          <mxGeometry x="460" y="382.08" width="80" height="60" as="geometry" />
        </mxCell>
        <mxCell id="BqVu11j0ND8JVcRdIvdi-21" value="" style="endArrow=classic;html=1;rounded=0;" edge="1" parent="WIyWlLk6GJQsqaUBKTNV-1">
          <mxGeometry width="50" height="50" relative="1" as="geometry">
            <mxPoint x="499.5" y="342.08000000000004" as="sourcePoint" />
            <mxPoint x="499.5" y="382.08" as="targetPoint" />
          </mxGeometry>
        </mxCell>
        <mxCell id="BqVu11j0ND8JVcRdIvdi-22" value="&lt;div&gt;swap A[i] and A[j+1]&lt;/div&gt;&lt;div&gt;swapped = true&lt;br&gt;&lt;/div&gt;" style="rounded=0;whiteSpace=wrap;html=1;" vertex="1" parent="WIyWlLk6GJQsqaUBKTNV-1">
          <mxGeometry x="445" y="482.08" width="110" height="40" as="geometry" />
        </mxCell>
        <mxCell id="BqVu11j0ND8JVcRdIvdi-23" value="" style="endArrow=classic;html=1;rounded=0;" edge="1" parent="WIyWlLk6GJQsqaUBKTNV-1">
          <mxGeometry width="50" height="50" relative="1" as="geometry">
            <mxPoint x="499.5" y="442.08" as="sourcePoint" />
            <mxPoint x="499.5" y="482.08" as="targetPoint" />
          </mxGeometry>
        </mxCell>
        <mxCell id="BqVu11j0ND8JVcRdIvdi-24" value="i -= 1" style="rounded=0;whiteSpace=wrap;html=1;" vertex="1" parent="WIyWlLk6GJQsqaUBKTNV-1">
          <mxGeometry x="390" y="307.08000000000004" width="40" height="20" as="geometry" />
        </mxCell>
        <mxCell id="BqVu11j0ND8JVcRdIvdi-25" value="" style="endArrow=classic;html=1;rounded=0;" edge="1" parent="WIyWlLk6GJQsqaUBKTNV-1">
          <mxGeometry width="50" height="50" relative="1" as="geometry">
            <mxPoint x="460" y="411.58" as="sourcePoint" />
            <mxPoint x="410" y="412.08" as="targetPoint" />
          </mxGeometry>
        </mxCell>
        <mxCell id="BqVu11j0ND8JVcRdIvdi-26" value="" style="endArrow=classic;html=1;rounded=0;" edge="1" parent="WIyWlLk6GJQsqaUBKTNV-1">
          <mxGeometry width="50" height="50" relative="1" as="geometry">
            <mxPoint x="410" y="502.08" as="sourcePoint" />
            <mxPoint x="410" y="327.08000000000004" as="targetPoint" />
          </mxGeometry>
        </mxCell>
        <mxCell id="BqVu11j0ND8JVcRdIvdi-27" value="" style="endArrow=classic;html=1;rounded=0;" edge="1" parent="WIyWlLk6GJQsqaUBKTNV-1">
          <mxGeometry width="50" height="50" relative="1" as="geometry">
            <mxPoint x="445" y="501.73999999999995" as="sourcePoint" />
            <mxPoint x="410" y="502.23999999999995" as="targetPoint" />
          </mxGeometry>
        </mxCell>
        <mxCell id="BqVu11j0ND8JVcRdIvdi-28" style="edgeStyle=orthogonalEdgeStyle;rounded=0;orthogonalLoop=1;jettySize=auto;html=1;exitX=0.5;exitY=1;exitDx=0;exitDy=0;" edge="1" parent="WIyWlLk6GJQsqaUBKTNV-1" source="BqVu11j0ND8JVcRdIvdi-22" target="BqVu11j0ND8JVcRdIvdi-22">
          <mxGeometry relative="1" as="geometry" />
        </mxCell>
        <mxCell id="BqVu11j0ND8JVcRdIvdi-29" value="" style="endArrow=classic;html=1;rounded=0;" edge="1" parent="WIyWlLk6GJQsqaUBKTNV-1">
          <mxGeometry width="50" height="50" relative="1" as="geometry">
            <mxPoint x="430" y="316.74" as="sourcePoint" />
            <mxPoint x="470" y="316.74" as="targetPoint" />
          </mxGeometry>
        </mxCell>
        <mxCell id="BqVu11j0ND8JVcRdIvdi-30" value="i &amp;gt;= 0?" style="rhombus;whiteSpace=wrap;html=1;" vertex="1" parent="WIyWlLk6GJQsqaUBKTNV-1">
          <mxGeometry x="470" y="297.08" width="60" height="40" as="geometry" />
        </mxCell>
        <mxCell id="BqVu11j0ND8JVcRdIvdi-31" value="" style="endArrow=classic;html=1;rounded=0;entryX=0.51;entryY=-0.084;entryDx=0;entryDy=0;entryPerimeter=0;" edge="1" parent="WIyWlLk6GJQsqaUBKTNV-1" target="BqVu11j0ND8JVcRdIvdi-30">
          <mxGeometry width="50" height="50" relative="1" as="geometry">
            <mxPoint x="500" y="240" as="sourcePoint" />
            <mxPoint x="500.3999999999999" y="301.44" as="targetPoint" />
          </mxGeometry>
        </mxCell>
        <mxCell id="BqVu11j0ND8JVcRdIvdi-32" value="not swapped?" style="rhombus;whiteSpace=wrap;html=1;" vertex="1" parent="WIyWlLk6GJQsqaUBKTNV-1">
          <mxGeometry x="250" y="195" width="100" height="60" as="geometry" />
        </mxCell>
        <mxCell id="BqVu11j0ND8JVcRdIvdi-33" value="" style="endArrow=classic;html=1;rounded=0;exitX=1;exitY=0.5;exitDx=0;exitDy=0;entryX=0;entryY=0.5;entryDx=0;entryDy=0;" edge="1" parent="WIyWlLk6GJQsqaUBKTNV-1" source="BqVu11j0ND8JVcRdIvdi-6" target="BqVu11j0ND8JVcRdIvdi-32">
          <mxGeometry width="50" height="50" relative="1" as="geometry">
            <mxPoint x="250" y="340" as="sourcePoint" />
            <mxPoint x="300" y="290" as="targetPoint" />
          </mxGeometry>
        </mxCell>
        <mxCell id="BqVu11j0ND8JVcRdIvdi-34" value="" style="endArrow=classic;html=1;rounded=0;exitX=1;exitY=0.5;exitDx=0;exitDy=0;entryX=0;entryY=0.5;entryDx=0;entryDy=0;" edge="1" parent="WIyWlLk6GJQsqaUBKTNV-1" source="BqVu11j0ND8JVcRdIvdi-32" target="BqVu11j0ND8JVcRdIvdi-19">
          <mxGeometry width="50" height="50" relative="1" as="geometry">
            <mxPoint x="250" y="340" as="sourcePoint" />
            <mxPoint x="300" y="290" as="targetPoint" />
          </mxGeometry>
        </mxCell>
        <mxCell id="BqVu11j0ND8JVcRdIvdi-35" value="swapped?" style="rhombus;whiteSpace=wrap;html=1;" vertex="1" parent="WIyWlLk6GJQsqaUBKTNV-1">
          <mxGeometry x="600" y="292.08" width="80" height="50" as="geometry" />
        </mxCell>
        <mxCell id="BqVu11j0ND8JVcRdIvdi-36" value="" style="endArrow=classic;html=1;rounded=0;" edge="1" parent="WIyWlLk6GJQsqaUBKTNV-1">
          <mxGeometry width="50" height="50" relative="1" as="geometry">
            <mxPoint x="530" y="316.66" as="sourcePoint" />
            <mxPoint x="600" y="316.66" as="targetPoint" />
          </mxGeometry>
        </mxCell>
        <mxCell id="BqVu11j0ND8JVcRdIvdi-37" value="" style="endArrow=none;html=1;rounded=0;" edge="1" parent="WIyWlLk6GJQsqaUBKTNV-1">
          <mxGeometry width="50" height="50" relative="1" as="geometry">
            <mxPoint x="640" y="290" as="sourcePoint" />
            <mxPoint x="640" y="130" as="targetPoint" />
          </mxGeometry>
        </mxCell>
        <mxCell id="BqVu11j0ND8JVcRdIvdi-38" value="" style="endArrow=classic;html=1;rounded=0;entryX=1;entryY=0.5;entryDx=0;entryDy=0;" edge="1" parent="WIyWlLk6GJQsqaUBKTNV-1" target="BqVu11j0ND8JVcRdIvdi-5">
          <mxGeometry width="50" height="50" relative="1" as="geometry">
            <mxPoint x="640" y="130" as="sourcePoint" />
            <mxPoint x="464" y="105" as="targetPoint" />
          </mxGeometry>
        </mxCell>
        <mxCell id="BqVu11j0ND8JVcRdIvdi-39" value="return(A)" style="rounded=0;whiteSpace=wrap;html=1;" vertex="1" parent="WIyWlLk6GJQsqaUBKTNV-1">
          <mxGeometry x="270" y="540" width="60" height="40" as="geometry" />
        </mxCell>
        <mxCell id="BqVu11j0ND8JVcRdIvdi-40" value="" style="endArrow=classic;html=1;rounded=0;exitX=0.5;exitY=1;exitDx=0;exitDy=0;entryX=0.5;entryY=0;entryDx=0;entryDy=0;" edge="1" parent="WIyWlLk6GJQsqaUBKTNV-1" source="BqVu11j0ND8JVcRdIvdi-32" target="BqVu11j0ND8JVcRdIvdi-39">
          <mxGeometry width="50" height="50" relative="1" as="geometry">
            <mxPoint x="250" y="410" as="sourcePoint" />
            <mxPoint x="300" y="360" as="targetPoint" />
          </mxGeometry>
        </mxCell>
        <mxCell id="BqVu11j0ND8JVcRdIvdi-41" value="" style="endArrow=classic;html=1;rounded=0;" edge="1" parent="WIyWlLk6GJQsqaUBKTNV-1">
          <mxGeometry width="50" height="50" relative="1" as="geometry">
            <mxPoint x="640" y="560.04" as="sourcePoint" />
            <mxPoint x="330" y="560" as="targetPoint" />
          </mxGeometry>
        </mxCell>
        <mxCell id="BqVu11j0ND8JVcRdIvdi-42" value="" style="endArrow=none;html=1;rounded=0;" edge="1" parent="WIyWlLk6GJQsqaUBKTNV-1">
          <mxGeometry width="50" height="50" relative="1" as="geometry">
            <mxPoint x="640" y="560" as="sourcePoint" />
            <mxPoint x="640" y="342.08" as="targetPoint" />
          </mxGeometry>
        </mxCell>
        <mxCell id="BqVu11j0ND8JVcRdIvdi-44" value="Start" style="ellipse;whiteSpace=wrap;html=1;" vertex="1" parent="WIyWlLk6GJQsqaUBKTNV-1">
          <mxGeometry x="120" y="545" width="80" height="30" as="geometry" />
        </mxCell>
        <mxCell id="BqVu11j0ND8JVcRdIvdi-45" value="" style="endArrow=classic;html=1;rounded=0;exitX=0;exitY=0.5;exitDx=0;exitDy=0;entryX=1;entryY=0.5;entryDx=0;entryDy=0;" edge="1" parent="WIyWlLk6GJQsqaUBKTNV-1" source="BqVu11j0ND8JVcRdIvdi-39" target="BqVu11j0ND8JVcRdIvdi-44">
          <mxGeometry width="50" height="50" relative="1" as="geometry">
            <mxPoint x="320" y="470" as="sourcePoint" />
            <mxPoint x="370" y="420" as="targetPoint" />
          </mxGeometry>
        </mxCell>
      </root>
    </mxGraphModel>
  </diagram>
</mxfile>
